<svg xmlns="http://www.w3.org/2000/svg" xmlns:xlink="http://www.w3.org/1999/xlink" width="1080" zoomAndPan="magnify" viewBox="0 0 810 809.999993" height="1080" preserveAspectRatio="xMidYMid meet" version="1.0"><defs><g/><clipPath id="1fd258a0fa"><path d="M 216 143 L 603 143 L 603 530.691406 L 216 530.691406 Z M 216 143 " clip-rule="nonzero"/></clipPath><clipPath id="adcdc7cccb"><path d="M 533 399 L 604.546875 399 L 604.546875 471 L 533 471 Z M 533 399 " clip-rule="nonzero"/></clipPath><clipPath id="31786011df"><path d="M 351 56.691406 L 423 56.691406 L 423 128 L 351 128 Z M 351 56.691406 " clip-rule="nonzero"/></clipPath><clipPath id="9c86f16a97"><rect x="0" width="655" y="0" height="142"/></clipPath><clipPath id="132a88578c"><rect x="0" width="547" y="0" height="51"/></clipPath></defs><rect x="-81" width="972" fill="#ffffff" y="-80.999999" height="971.999992" fill-opacity="1"/><rect x="-81" width="972" fill="#ffffff" y="-80.999999" height="971.999992" fill-opacity="1"/><g clip-path="url(#1fd258a0fa)"><path stroke-linecap="round" transform="matrix(0.194444, 0, 0, -0.194451, -7.369054, 706.996808)" fill="none" stroke-linejoin="round" d="M 3128.715094 1902.979956 C 3128.715094 1359.3815 2688.016414 918.677031 2144.380229 918.677031 C 1600.744044 918.677031 1160.045364 1359.3815 1160.045364 1902.979956 C 1160.045364 2446.618589 1600.744044 2887.30297 2144.380229 2887.30297 C 2688.016414 2887.30297 3128.715094 2446.618589 3128.715094 1902.979956 Z M 3128.715094 1902.979956 " stroke="#0a2f4d" stroke-width="20" stroke-opacity="1" stroke-miterlimit="10"/></g><path stroke-linecap="round" transform="matrix(0.194444, 0, 0, -0.194451, -7.369054, 706.996808)" fill="none" stroke-linejoin="round" d="M 2721.06329 1902.979956 C 2721.06329 1584.534918 2462.85569 1326.335696 2144.380229 1326.335696 C 1825.904768 1326.335696 1567.697168 1584.534918 1567.697168 1902.979956 C 1567.697168 2221.48526 1825.904768 2479.664393 2144.380229 2479.664393 C 2462.85569 2479.664393 2721.06329 2221.48526 2721.06329 1902.979956 Z M 2721.06329 1902.979956 " stroke="#0a2f4d" stroke-width="20" stroke-opacity="1" stroke-miterlimit="10"/><path fill="#fbc439" d="M 459.570312 336.960938 C 459.570312 364.558594 437.195312 386.941406 409.59375 386.941406 C 381.992188 386.941406 359.613281 364.558594 359.613281 336.960938 C 359.613281 309.359375 381.992188 286.972656 409.59375 286.972656 C 437.195312 286.972656 459.570312 309.359375 459.570312 336.960938 " fill-opacity="1" fill-rule="nonzero"/><path stroke-linecap="butt" transform="matrix(0.194444, 0, 0, -0.194451, -7.369054, 706.996808)" fill="none" stroke-linejoin="round" d="M 2401.402562 1902.979956 C 2401.402562 1761.053751 2286.331128 1645.945874 2144.380229 1645.945874 C 2002.42933 1645.945874 1887.337807 1761.053751 1887.337807 1902.979956 C 1887.337807 2044.926249 2002.42933 2160.054215 2144.380229 2160.054215 C 2286.331128 2160.054215 2401.402562 2044.926249 2401.402562 1902.979956 Z M 2401.402562 1902.979956 " stroke="#0a2f4d" stroke-width="20" stroke-opacity="1" stroke-miterlimit="10"/><path stroke-linecap="round" transform="matrix(0.194444, 0, 0, -0.194451, -7.369054, 706.996808)" fill-opacity="1" fill="#d3d2d2" fill-rule="nonzero" stroke-linejoin="round" d="M 2457.652564 2035.826097 L 2542.690515 2071.885197 " stroke="#0a2f4d" stroke-width="20" stroke-opacity="1" stroke-miterlimit="10"/><path stroke-linecap="round" transform="matrix(0.194444, 0, 0, -0.194451, -7.369054, 706.996808)" fill-opacity="1" fill="#d3d2d2" fill-rule="nonzero" stroke-linejoin="round" d="M 1746.049854 1734.114892 L 1831.087804 1770.173992 " stroke="#0a2f4d" stroke-width="20" stroke-opacity="1" stroke-miterlimit="10"/><path stroke-linecap="round" transform="matrix(0.194444, 0, 0, -0.194451, -7.369054, 706.996808)" fill-opacity="1" fill="#d3d2d2" fill-rule="nonzero" stroke-linejoin="round" d="M 2459.802118 1775.397037 L 2545.422658 1740.744142 " stroke="#0a2f4d" stroke-width="20" stroke-opacity="1" stroke-miterlimit="10"/><path stroke-linecap="round" transform="matrix(0.194444, 0, 0, -0.194451, -7.369054, 706.996808)" fill-opacity="1" fill="#d3d2d2" fill-rule="nonzero" stroke-linejoin="round" d="M 1743.317711 2065.195681 L 1828.938251 2030.603052 " stroke="#0a2f4d" stroke-width="20" stroke-opacity="1" stroke-miterlimit="10"/><path stroke-linecap="round" transform="matrix(0.194444, 0, 0, -0.194451, -7.369054, 706.996808)" fill-opacity="1" fill="#d3d2d2" fill-rule="nonzero" stroke-linejoin="round" d="M 2277.190503 1589.697697 L 2313.250772 1504.662506 " stroke="#0a2f4d" stroke-width="20" stroke-opacity="1" stroke-miterlimit="10"/><path stroke-linecap="round" transform="matrix(0.194444, 0, 0, -0.194451, -7.369054, 706.996808)" fill-opacity="1" fill="#d3d2d2" fill-rule="nonzero" stroke-linejoin="round" d="M 1975.509686 2301.297406 L 2011.569955 2216.262215 " stroke="#0a2f4d" stroke-width="20" stroke-opacity="1" stroke-miterlimit="10"/><path stroke-linecap="round" transform="matrix(0.194444, 0, 0, -0.194451, -7.369054, 706.996808)" fill="none" stroke-linejoin="round" d="M 2144.380229 2206.17772 L 2144.380229 2372.712502 " stroke="#0a2f4d" stroke-width="20" stroke-opacity="1" stroke-miterlimit="10"/><path stroke-linecap="round" transform="matrix(0.194444, 0, 0, -0.194451, -7.369054, 706.996808)" fill="none" stroke-linejoin="round" d="M 2144.380229 1433.287587 L 2144.380229 1599.822369 " stroke="#0a2f4d" stroke-width="20" stroke-opacity="1" stroke-miterlimit="10"/><path stroke-linecap="round" transform="matrix(0.194444, 0, 0, -0.194451, -7.369054, 706.996808)" fill-opacity="1" fill="#d3d2d2" fill-rule="nonzero" stroke-linejoin="round" d="M 2271.947199 2218.451876 L 2306.601218 2304.02946 " stroke="#0a2f4d" stroke-width="20" stroke-opacity="1" stroke-miterlimit="10"/><path stroke-linecap="round" transform="matrix(0.194444, 0, 0, -0.194451, -7.369054, 706.996808)" fill-opacity="1" fill="#d3d2d2" fill-rule="nonzero" stroke-linejoin="round" d="M 1982.13915 1501.930452 L 2016.79317 1587.548213 " stroke="#0a2f4d" stroke-width="20" stroke-opacity="1" stroke-miterlimit="10"/><path stroke-linecap="round" transform="matrix(0.194444, 0, 0, -0.194451, -7.369054, 706.996808)" fill-opacity="1" fill="#d3d2d2" fill-rule="nonzero" stroke-linejoin="round" d="M 2358.753006 2117.385954 L 2476.516404 2235.125443 " stroke="#0a2f4d" stroke-width="20" stroke-opacity="1" stroke-miterlimit="10"/><path stroke-linecap="round" transform="matrix(0.194444, 0, 0, -0.194451, -7.369054, 706.996808)" fill-opacity="1" fill="#d3d2d2" fill-rule="nonzero" stroke-linejoin="round" d="M 1812.223964 1570.874646 L 1930.007452 1688.634223 " stroke="#0a2f4d" stroke-width="20" stroke-opacity="1" stroke-miterlimit="10"/><path stroke-linecap="round" transform="matrix(0.194444, 0, 0, -0.194451, -7.369054, 706.996808)" fill="none" stroke-linejoin="round" d="M 2447.587832 1902.979956 L 2614.06775 1902.979956 " stroke="#0a2f4d" stroke-width="20" stroke-opacity="1" stroke-miterlimit="10"/><path stroke-linecap="round" transform="matrix(0.194444, 0, 0, -0.194451, -7.369054, 706.996808)" fill-opacity="1" fill="#d3d2d2" fill-rule="nonzero" stroke-linejoin="round" d="M 1674.65253 1903.020133 L 1841.172626 1902.979956 " stroke="#0a2f4d" stroke-width="20" stroke-opacity="1" stroke-miterlimit="10"/><path stroke-linecap="round" transform="matrix(0.194444, 0, 0, -0.194451, -7.369054, 706.996808)" fill-opacity="1" fill="#d3d2d2" fill-rule="nonzero" stroke-linejoin="round" d="M 2358.753006 1688.594046 L 2476.476226 1570.874646 " stroke="#0a2f4d" stroke-width="20" stroke-opacity="1" stroke-miterlimit="10"/><path stroke-linecap="round" transform="matrix(0.194444, 0, 0, -0.194451, -7.369054, 706.996808)" fill-opacity="1" fill="#d3d2d2" fill-rule="nonzero" stroke-linejoin="round" d="M 1812.264143 2235.125443 L 1930.007452 2117.385954 " stroke="#0a2f4d" stroke-width="20" stroke-opacity="1" stroke-miterlimit="10"/><path stroke-linecap="round" transform="matrix(0.194444, 0, 0, -0.194451, -7.369054, 706.996808)" fill="none" stroke-linejoin="round" d="M 2112.900317 2117.385954 C 2112.900317 2117.385954 1942.382452 2095.750495 1929.76638 1908.865926 " stroke="#0a2f4d" stroke-width="20" stroke-opacity="1" stroke-miterlimit="10"/><path fill="#0a2f4d" d="M 369.464844 341.0625 C 369.464844 342.203125 368.539062 343.121094 367.398438 343.121094 C 366.261719 343.121094 365.339844 342.203125 365.339844 341.0625 C 365.339844 339.925781 366.261719 339.003906 367.398438 339.003906 C 368.539062 339.003906 369.464844 339.925781 369.464844 341.0625 " fill-opacity="1" fill-rule="nonzero"/><path fill="#fbc439" d="M 239.765625 422.992188 C 242.878906 421.394531 247.511719 420.71875 254.675781 420.003906 C 247.511719 419.285156 242.878906 418.617188 239.765625 417.019531 C 240.835938 413.6875 243.632812 409.933594 248.195312 404.351562 C 242.621094 408.914062 238.867188 411.71875 235.535156 412.789062 C 233.941406 409.675781 233.261719 405.042969 232.550781 397.878906 C 231.828125 405.042969 231.160156 409.675781 229.558594 412.789062 C 226.230469 411.71875 222.46875 408.914062 216.902344 404.359375 C 221.460938 409.933594 224.253906 413.6875 225.332031 417.019531 C 222.21875 418.617188 217.585938 419.285156 210.425781 420.003906 C 217.585938 420.71875 222.21875 421.394531 225.328125 422.992188 C 224.253906 426.324219 221.460938 430.070312 216.894531 435.652344 C 222.46875 431.085938 226.230469 428.292969 229.558594 427.222656 C 231.160156 430.328125 231.828125 434.96875 232.550781 442.132812 C 233.261719 434.96875 233.941406 430.328125 235.535156 427.222656 C 238.867188 428.292969 242.621094 431.09375 248.195312 435.652344 C 243.640625 430.070312 240.835938 426.324219 239.765625 422.992188 " fill-opacity="1" fill-rule="nonzero"/><path stroke-linecap="butt" transform="matrix(0.194444, 0, 0, -0.194451, -7.369054, 706.996808)" fill="none" stroke-linejoin="round" d="M 1270.978405 1460.547864 C 1286.989566 1468.764116 1310.81546 1472.23945 1347.659212 1475.91567 C 1310.81546 1479.611979 1286.989566 1483.047135 1270.978405 1491.263387 C 1276.482869 1508.398992 1290.866798 1527.70417 1314.331085 1556.410829 C 1285.663673 1532.947304 1266.357869 1518.523664 1249.221707 1513.019378 C 1241.025278 1529.03002 1237.529742 1552.855141 1233.873492 1589.697697 C 1230.156974 1552.855141 1226.721706 1529.03002 1218.485099 1513.019378 C 1201.369026 1518.523664 1182.023043 1532.947304 1153.39581 1556.370652 C 1176.840008 1527.70417 1191.203847 1508.398992 1196.748491 1491.263387 C 1180.737329 1483.047135 1156.911435 1479.611979 1120.087773 1475.91567 C 1156.911435 1472.23945 1180.737329 1468.764116 1196.728401 1460.547864 C 1191.203847 1443.412259 1176.840008 1424.147258 1153.355631 1395.440599 C 1182.023043 1418.904124 1201.369026 1433.287587 1218.485099 1438.791873 C 1226.721706 1422.821408 1230.156974 1398.95611 1233.873492 1362.113554 C 1237.529742 1398.95611 1241.025278 1422.821408 1249.221707 1438.791873 C 1266.357869 1433.287587 1285.663673 1418.884036 1314.331085 1395.440599 C 1290.906977 1424.147258 1276.482869 1443.412259 1270.978405 1460.547864 Z M 1270.978405 1460.547864 " stroke="#0a2f4d" stroke-width="20" stroke-opacity="1" stroke-miterlimit="10"/><path fill="#fbc439" d="M 579.449219 316.132812 C 582.566406 314.539062 587.199219 313.863281 594.367188 313.148438 C 587.199219 312.425781 582.566406 311.757812 579.449219 310.15625 C 580.523438 306.828125 583.324219 303.078125 587.882812 297.5 C 582.3125 302.058594 578.554688 304.863281 575.226562 305.933594 C 573.632812 302.820312 572.957031 298.183594 572.242188 291.023438 C 571.519531 298.183594 570.84375 302.820312 569.25 305.933594 C 565.914062 304.863281 562.164062 302.058594 556.589844 297.5 C 561.152344 303.078125 563.949219 306.828125 565.019531 310.15625 C 561.90625 311.757812 557.273438 312.425781 550.109375 313.148438 C 557.273438 313.863281 561.90625 314.539062 565.019531 316.132812 C 563.949219 319.460938 561.144531 323.222656 556.589844 328.796875 C 562.164062 324.230469 565.914062 321.4375 569.25 320.363281 C 570.84375 323.472656 571.519531 328.113281 572.242188 335.273438 C 572.957031 328.113281 573.632812 323.472656 575.226562 320.363281 C 578.554688 321.4375 582.3125 324.238281 587.890625 328.796875 C 583.324219 323.222656 580.523438 319.460938 579.449219 316.132812 " fill-opacity="1" fill-rule="nonzero"/><path stroke-linecap="butt" transform="matrix(0.194444, 0, 0, -0.194451, -7.369054, 706.996808)" fill="none" stroke-linejoin="round" d="M 3017.922678 2010.092556 C 3033.953929 2018.288719 3057.779823 2021.764053 3094.643664 2025.440273 C 3057.779823 2029.156671 3033.953929 2032.591827 3017.922678 2040.828167 C 3023.447232 2057.943684 3037.851251 2077.228774 3061.295448 2105.915344 C 3032.648126 2082.471907 3013.322232 2068.048268 2996.20616 2062.543982 C 2988.009731 2078.554624 2984.534284 2102.399833 2980.857945 2139.2223 C 2977.141427 2102.399833 2973.66598 2078.554624 2965.469551 2062.543982 C 2948.3133 2068.048268 2929.027585 2082.471907 2900.360173 2105.915344 C 2923.82446 2077.228774 2938.208389 2057.943684 2943.712854 2040.828167 C 2927.701692 2032.591827 2903.875798 2029.156671 2867.032047 2025.440273 C 2903.875798 2021.764053 2927.701692 2018.288719 2943.712854 2010.092556 C 2938.208389 1992.97704 2923.784281 1973.631684 2900.360173 1944.965202 C 2929.027585 1968.448816 2948.3133 1982.81219 2965.469551 1988.336565 C 2973.66598 1972.346012 2977.141427 1948.480714 2980.857945 1911.658246 C 2984.534284 1948.480714 2988.009731 1972.346012 2996.20616 1988.336565 C 3013.322232 1982.81219 3032.648126 1968.408639 3061.335627 1944.965202 C 3037.851251 1973.631684 3023.447232 1992.97704 3017.922678 2010.092556 Z M 3017.922678 2010.092556 " stroke="#0a2f4d" stroke-width="20" stroke-opacity="1" stroke-miterlimit="10"/><path fill="#fbc439" d="M 373.46875 476.753906 C 375.367188 475.78125 378.183594 475.371094 382.539062 474.9375 C 378.183594 474.496094 375.367188 474.085938 373.46875 473.113281 C 374.121094 471.09375 375.824219 468.808594 378.59375 465.421875 C 375.207031 468.191406 372.929688 469.894531 370.902344 470.546875 C 369.929688 468.65625 369.519531 465.839844 369.085938 461.484375 C 368.652344 465.839844 368.234375 468.65625 367.269531 470.546875 C 365.242188 469.894531 362.957031 468.191406 359.570312 465.421875 C 362.339844 468.808594 364.042969 471.09375 364.695312 473.113281 C 362.804688 474.085938 359.988281 474.496094 355.625 474.9375 C 359.988281 475.371094 362.804688 475.78125 364.695312 476.753906 C 364.042969 478.78125 362.339844 481.058594 359.570312 484.449219 C 362.957031 481.683594 365.242188 479.972656 367.269531 479.320312 C 368.234375 481.21875 368.652344 484.039062 369.085938 488.390625 C 369.519531 484.039062 369.929688 481.21875 370.902344 479.320312 C 372.929688 479.972656 375.207031 481.683594 378.601562 484.449219 C 375.824219 481.058594 374.121094 478.78125 373.46875 476.753906 " fill-opacity="1" fill-rule="nonzero"/><path stroke-linecap="butt" transform="matrix(0.194444, 0, 0, -0.194451, -7.369054, 706.996808)" fill="none" stroke-linejoin="round" d="M 1958.594506 1184.067984 C 1968.3579 1189.070054 1982.842275 1191.179361 2005.24183 1193.4092 C 1982.842275 1195.679215 1968.3579 1197.788522 1958.594506 1202.790592 C 1961.949417 1213.176416 1970.708346 1224.928267 1984.951651 1242.345114 C 1967.534239 1228.102272 1955.822185 1219.343627 1945.395845 1215.988825 C 1940.393613 1225.711724 1938.284238 1240.19563 1936.054327 1262.594458 C 1933.824416 1240.19563 1931.674862 1225.711724 1926.712809 1215.988825 C 1916.286469 1219.343627 1904.534236 1228.102272 1887.116825 1242.345114 C 1901.360129 1224.928267 1910.119058 1213.176416 1913.473969 1202.790592 C 1903.750754 1197.788522 1889.266378 1195.679215 1866.826645 1193.4092 C 1889.266378 1191.179361 1903.750754 1189.070054 1913.473969 1184.067984 C 1910.119058 1173.641983 1901.360129 1161.930309 1887.116825 1144.493374 C 1904.534236 1158.716127 1916.286469 1167.514949 1926.712809 1170.869751 C 1931.674862 1161.106675 1933.824416 1146.602681 1936.054327 1124.223941 C 1938.284238 1146.602681 1940.393613 1161.106675 1945.395845 1170.869751 C 1955.822185 1167.514949 1967.534239 1158.716127 1984.991829 1144.493374 C 1970.708346 1161.930309 1961.949417 1173.641983 1958.594506 1184.067984 Z M 1958.594506 1184.067984 " stroke="#0a2f4d" stroke-width="20" stroke-opacity="1" stroke-miterlimit="10"/><path fill="#fbc439" d="M 339.765625 200.792969 C 341.660156 199.820312 344.476562 199.410156 348.835938 198.976562 C 344.476562 198.542969 341.660156 198.132812 339.765625 197.160156 C 340.421875 195.132812 342.121094 192.847656 344.894531 189.460938 C 341.507812 192.234375 339.21875 193.933594 337.191406 194.585938 C 336.21875 192.695312 335.808594 189.878906 335.378906 185.519531 C 334.945312 189.878906 334.535156 192.695312 333.5625 194.585938 C 331.535156 193.933594 329.246094 192.234375 325.867188 189.460938 C 328.640625 192.847656 330.339844 195.132812 330.988281 197.160156 C 329.097656 198.132812 326.277344 198.542969 321.925781 198.976562 C 326.277344 199.410156 329.097656 199.820312 330.988281 200.792969 C 330.332031 202.820312 328.632812 205.101562 325.859375 208.496094 C 329.246094 205.722656 331.535156 204.011719 333.5625 203.367188 C 334.535156 205.257812 334.945312 208.078125 335.378906 212.4375 C 335.808594 208.078125 336.21875 205.257812 337.191406 203.367188 C 339.21875 204.011719 341.507812 205.722656 344.894531 208.496094 C 342.121094 205.101562 340.421875 202.820312 339.765625 200.792969 " fill-opacity="1" fill-rule="nonzero"/><path stroke-linecap="butt" transform="matrix(0.194444, 0, 0, -0.194451, -7.369054, 706.996808)" fill="none" stroke-linejoin="round" d="M 1785.264142 2603.249674 C 1795.007446 2608.251744 1809.491821 2610.361051 1831.911465 2612.590889 C 1809.491821 2614.820728 1795.007446 2616.930035 1785.264142 2621.912016 C 1788.639142 2632.358106 1797.377981 2644.109957 1811.641375 2661.526804 C 1794.223963 2647.263873 1782.451642 2638.525317 1772.025302 2635.170515 C 1767.023069 2644.893414 1764.913694 2659.37732 1762.703873 2681.796236 C 1760.473962 2659.37732 1758.364587 2644.893414 1753.362355 2635.170515 C 1742.936015 2638.525317 1731.163693 2647.263873 1713.78646 2661.526804 C 1728.049853 2644.109957 1736.788693 2632.358106 1740.123515 2621.912016 C 1730.4003 2616.930035 1715.895835 2614.820728 1693.51637 2612.590889 C 1715.895835 2610.361051 1730.4003 2608.251744 1740.123515 2603.249674 C 1736.748514 2592.823673 1728.009675 2581.09191 1713.746281 2563.634887 C 1731.163693 2577.897817 1742.936015 2586.696639 1753.362355 2590.011264 C 1758.364587 2580.288365 1760.473962 2565.784371 1762.703873 2543.365454 C 1764.913694 2565.784371 1767.023069 2580.288365 1772.025302 2590.011264 C 1782.451642 2586.696639 1794.223963 2577.897817 1811.641375 2563.634887 C 1797.377981 2581.09191 1788.639142 2592.823673 1785.264142 2603.249674 Z M 1785.264142 2603.249674 " stroke="#0a2f4d" stroke-width="20" stroke-opacity="1" stroke-miterlimit="10"/><path fill="#fbc439" d="M 453.972656 154.929688 C 455.136719 154.335938 456.867188 154.078125 459.539062 153.820312 C 456.867188 153.546875 455.136719 153.296875 453.972656 152.695312 C 454.367188 151.457031 455.417969 150.054688 457.117188 147.972656 C 455.035156 149.671875 453.640625 150.722656 452.394531 151.125 C 451.792969 149.960938 451.542969 148.230469 451.277344 145.558594 C 451.011719 148.230469 450.761719 149.960938 450.160156 151.125 C 448.914062 150.722656 447.515625 149.671875 445.4375 147.972656 C 447.136719 150.054688 448.183594 151.457031 448.589844 152.695312 C 447.425781 153.296875 445.695312 153.546875 443.019531 153.820312 C 445.695312 154.078125 447.425781 154.335938 448.582031 154.929688 C 448.183594 156.175781 447.136719 157.574219 445.4375 159.65625 C 447.515625 157.953125 448.914062 156.914062 450.160156 156.507812 C 450.761719 157.671875 451.011719 159.402344 451.277344 162.078125 C 451.542969 159.402344 451.792969 157.671875 452.394531 156.507812 C 453.640625 156.914062 455.035156 157.953125 457.117188 159.65625 C 455.417969 157.574219 454.367188 156.175781 453.972656 154.929688 " fill-opacity="1" fill-rule="nonzero"/><path stroke-linecap="butt" transform="matrix(0.194444, 0, 0, -0.194451, -7.369054, 706.996808)" fill="none" stroke-linejoin="round" d="M 2372.614614 2839.110335 C 2378.601222 2842.163807 2387.500776 2843.489657 2401.241848 2844.815507 C 2387.500776 2846.221712 2378.601222 2847.507384 2372.614614 2850.601034 C 2374.643632 2856.969131 2380.04765 2864.180951 2388.78649 2874.888193 C 2378.0789 2866.149637 2370.907025 2860.745794 2364.498542 2858.676665 C 2361.404792 2864.663078 2360.119078 2873.562343 2358.753006 2887.30297 C 2357.386935 2873.562343 2356.101221 2864.663078 2353.00747 2858.676665 C 2346.598988 2860.745794 2339.407023 2866.149637 2328.719523 2874.888193 C 2337.458363 2864.180951 2342.842291 2856.969131 2344.931577 2850.601034 C 2338.94497 2847.507384 2330.045416 2846.221712 2316.284254 2844.815507 C 2330.045416 2843.489657 2338.94497 2842.163807 2344.891399 2839.110335 C 2342.842291 2832.70206 2337.458363 2825.510329 2328.719523 2814.803087 C 2339.407023 2823.561732 2346.598988 2828.905308 2353.00747 2830.974438 C 2356.101221 2825.008113 2357.386935 2816.108848 2358.753006 2802.348133 C 2360.119078 2816.108848 2361.404792 2825.008113 2364.498542 2830.974438 C 2370.907025 2828.905308 2378.0789 2823.561732 2388.78649 2814.803087 C 2380.04765 2825.510329 2374.643632 2832.70206 2372.614614 2839.110335 Z M 2372.614614 2839.110335 " stroke="#0a2f4d" stroke-width="20" stroke-opacity="1" stroke-miterlimit="10"/><path fill="#fbc439" d="M 544.960938 391.695312 C 546.039062 391.140625 547.640625 390.90625 550.109375 390.65625 C 547.640625 390.414062 546.039062 390.175781 544.960938 389.628906 C 545.332031 388.476562 546.296875 387.183594 547.867188 385.261719 C 545.945312 386.835938 544.648438 387.792969 543.5 388.171875 C 542.953125 387.09375 542.71875 385.5 542.46875 383.023438 C 542.226562 385.5 541.988281 387.09375 541.441406 388.171875 C 540.289062 387.792969 538.996094 386.835938 537.066406 385.261719 C 538.648438 387.183594 539.613281 388.476562 539.984375 389.628906 C 538.90625 390.175781 537.304688 390.414062 534.835938 390.65625 C 537.304688 390.90625 538.90625 391.140625 539.976562 391.695312 C 539.613281 392.84375 538.640625 394.132812 537.066406 396.054688 C 538.996094 394.492188 540.289062 393.519531 541.441406 393.15625 C 541.988281 394.226562 542.226562 395.820312 542.46875 398.296875 C 542.71875 395.820312 542.953125 394.226562 543.5 393.15625 C 544.648438 393.519531 545.945312 394.492188 547.867188 396.054688 C 546.296875 394.132812 545.332031 392.84375 544.960938 391.695312 " fill-opacity="1" fill-rule="nonzero"/><path stroke-linecap="butt" transform="matrix(0.194444, 0, 0, -0.194451, -7.369054, 706.996808)" fill="none" stroke-linejoin="round" d="M 2840.554367 1621.498006 C 2846.09901 1624.350592 2854.335618 1625.55591 2867.032047 1626.841583 C 2854.335618 1628.087078 2846.09901 1629.312485 2840.554367 1632.124894 C 2842.462849 1638.051041 2847.424903 1644.700379 2855.500796 1654.583987 C 2845.616867 1646.488267 2838.947224 1641.566552 2833.040974 1639.617954 C 2830.228474 1645.162418 2829.023117 1653.358581 2827.737402 1666.094775 C 2826.491866 1653.358581 2825.26642 1645.162418 2822.45392 1639.617954 C 2816.52758 1641.566552 2809.878026 1646.488267 2799.953919 1654.583987 C 2808.09008 1644.700379 2813.052134 1638.051041 2814.960616 1632.124894 C 2809.415973 1629.312485 2801.179365 1628.087078 2788.482936 1626.841583 C 2801.179365 1625.55591 2809.415973 1624.350592 2814.920437 1621.498006 C 2813.052134 1615.591947 2808.049901 1608.962698 2799.953919 1599.079089 C 2809.878026 1607.114543 2816.52758 1612.116613 2822.45392 1613.984856 C 2825.26642 1608.480571 2826.491866 1600.284408 2827.737402 1587.548213 C 2829.023117 1600.284408 2830.228474 1608.480571 2833.040974 1613.984856 C 2838.947224 1612.116613 2845.616867 1607.114543 2855.500796 1599.079089 C 2847.424903 1608.962698 2842.462849 1615.591947 2840.554367 1621.498006 Z M 2840.554367 1621.498006 " stroke="#0a2f4d" stroke-width="20" stroke-opacity="1" stroke-miterlimit="10"/><path fill="#fbc439" d="M 507.726562 243.753906 C 503.851562 247.796875 497.433594 247.933594 493.402344 244.050781 C 489.359375 240.167969 489.222656 233.75 493.105469 229.71875 C 496.988281 225.675781 503.40625 225.546875 507.4375 229.429688 C 511.480469 233.300781 511.609375 239.722656 507.726562 243.753906 " fill-opacity="1" fill-rule="nonzero"/><path stroke-linecap="butt" transform="matrix(0.194444, 0, 0, -0.194451, -7.369054, 706.996808)" fill="none" stroke-linejoin="round" d="M 2649.063287 2382.314869 C 2629.134715 2361.523132 2596.128017 2360.82003 2575.395873 2380.788133 C 2554.603461 2400.756236 2553.900336 2433.761863 2573.869087 2454.493334 C 2593.837838 2475.285071 2626.844536 2475.947996 2647.57668 2455.979893 C 2668.369092 2436.072056 2669.032038 2403.04634 2649.063287 2382.314869 Z M 2649.063287 2382.314869 " stroke="#0a2f4d" stroke-width="20" stroke-opacity="1" stroke-miterlimit="10"/><path fill="#fbc439" d="M 466.757812 457.011719 C 462.929688 461 456.59375 461.128906 452.605469 457.292969 C 448.617188 453.472656 448.488281 447.136719 452.316406 443.148438 C 456.144531 439.164062 462.480469 439.03125 466.46875 442.859375 C 470.457031 446.691406 470.59375 453.023438 466.757812 457.011719 " fill-opacity="1" fill-rule="nonzero"/><path stroke-linecap="butt" transform="matrix(0.194444, 0, 0, -0.194451, -7.369054, 706.996808)" fill="none" stroke-linejoin="round" d="M 2438.366849 1285.595944 C 2418.679348 1265.085448 2386.094525 1264.422523 2365.583364 1284.149563 C 2345.072202 1303.796247 2344.409256 1336.380013 2364.096757 1356.890509 C 2383.784257 1377.380916 2416.36908 1378.06393 2436.880242 1358.377068 C 2457.391404 1338.670117 2458.094529 1306.10644 2438.366849 1285.595944 Z M 2438.366849 1285.595944 " stroke="#0a2f4d" stroke-width="20" stroke-opacity="1" stroke-miterlimit="10"/><path fill="#fbc439" d="M 240.085938 317.007812 C 233.292969 324.078125 222.050781 324.308594 214.980469 317.515625 C 207.910156 310.726562 207.683594 299.492188 214.472656 292.421875 C 221.261719 285.347656 232.496094 285.113281 239.566406 291.910156 C 246.640625 298.695312 246.875 309.9375 240.085938 317.007812 " fill-opacity="1" fill-rule="nonzero"/><path stroke-linecap="butt" transform="matrix(0.194444, 0, 0, -0.194451, -7.369054, 706.996808)" fill="none" stroke-linejoin="round" d="M 1272.625726 2005.592702 C 1237.690457 1969.232273 1179.87349 1968.047044 1143.511881 2002.98118 C 1107.150272 2037.895227 1105.985094 2095.67014 1140.900274 2132.030569 C 1175.815454 2168.411087 1233.592242 2169.616405 1269.953851 2134.66218 C 1306.335549 2099.768222 1307.540906 2041.953131 1272.625726 2005.592702 Z M 1272.625726 2005.592702 " stroke="#0a2f4d" stroke-width="20" stroke-opacity="1" stroke-miterlimit="10"/><path fill="#d3d2d2" d="M 602.511719 434.902344 C 602.511719 453.320312 587.578125 468.261719 569.152344 468.261719 C 550.730469 468.261719 535.792969 453.320312 535.792969 434.902344 C 535.792969 416.480469 550.730469 401.539062 569.152344 401.539062 C 587.578125 401.539062 602.511719 416.480469 602.511719 434.902344 " fill-opacity="1" fill-rule="nonzero"/><g clip-path="url(#adcdc7cccb)"><path stroke-linecap="round" transform="matrix(0.194444, 0, 0, -0.194451, -7.369054, 706.996808)" fill="none" stroke-linejoin="round" d="M 3136.529827 1399.297617 C 3136.529827 1304.579704 3059.728484 1227.740676 2964.967319 1227.740676 C 2870.226243 1227.740676 2793.404811 1304.579704 2793.404811 1399.297617 C 2793.404811 1494.035618 2870.226243 1570.874646 2964.967319 1570.874646 C 3059.728484 1570.874646 3136.529827 1494.035618 3136.529827 1399.297617 Z M 3136.529827 1399.297617 " stroke="#0a2f4d" stroke-width="20" stroke-opacity="1" stroke-miterlimit="10"/></g><path stroke-linecap="round" transform="matrix(0.194444, 0, 0, -0.194451, -7.369054, 706.996808)" fill="none" stroke-linejoin="round" d="M 2964.967319 1534.895901 C 2964.967319 1534.895901 2851.1816 1520.432084 2842.744099 1395.701751 " stroke="#0a2f4d" stroke-width="20" stroke-opacity="1" stroke-miterlimit="10"/><path fill="#0a2f4d" d="M 547.3125 440.652344 C 547.3125 441.890625 546.3125 442.882812 545.074219 442.882812 C 543.84375 442.882812 542.839844 441.890625 542.839844 440.652344 C 542.839844 439.421875 543.84375 438.417969 545.074219 438.417969 C 546.3125 438.417969 547.3125 439.421875 547.3125 440.652344 " fill-opacity="1" fill-rule="nonzero"/><path fill="#55beb3" d="M 420.460938 92.1875 C 420.460938 110.617188 405.527344 125.550781 387.101562 125.550781 C 368.683594 125.550781 353.742188 110.617188 353.742188 92.1875 C 353.742188 73.769531 368.683594 58.828125 387.101562 58.828125 C 405.527344 58.828125 420.460938 73.769531 420.460938 92.1875 " fill-opacity="1" fill-rule="nonzero"/><g clip-path="url(#31786011df)"><path stroke-linecap="butt" transform="matrix(0.194444, 0, 0, -0.194451, -7.369054, 706.996808)" fill="none" stroke-linejoin="round" d="M 2200.268624 3161.773986 C 2200.268624 3066.995807 2123.467282 2990.196957 2028.706117 2990.196957 C 1933.98513 2990.196957 1857.143609 3066.995807 1857.143609 3161.773986 C 1857.143609 3256.491899 1933.98513 3333.330927 2028.706117 3333.330927 C 2123.467282 3333.330927 2200.268624 3256.491899 2200.268624 3161.773986 Z M 2200.268624 3161.773986 " stroke="#0a2f4d" stroke-width="20" stroke-opacity="1" stroke-miterlimit="10"/></g><path stroke-linecap="round" transform="matrix(0.194444, 0, 0, -0.194451, -7.369054, 706.996808)" fill="none" stroke-linejoin="round" d="M 2028.706117 3297.312005 C 2028.706117 3297.312005 1914.920397 3282.888365 1906.482897 3158.17812 " stroke="#0a2f4d" stroke-width="20" stroke-opacity="1" stroke-miterlimit="10"/><path fill="#0a2f4d" d="M 365.046875 98.160156 C 365.046875 99.269531 364.140625 100.179688 363.03125 100.179688 C 361.914062 100.179688 361.011719 99.269531 361.011719 98.160156 C 361.011719 97.042969 361.914062 96.140625 363.03125 96.140625 C 364.140625 96.140625 365.046875 97.042969 365.046875 98.160156 " fill-opacity="1" fill-rule="nonzero"/><g transform="matrix(1, 0, 0, 1, 76, 561)"><g clip-path="url(#9c86f16a97)"><g fill="#0a2f4d" fill-opacity="1"><g transform="translate(1.809979, 105.861436)"><g><path d="M 66.078125 -15.109375 L 64.953125 -18.5 C 63.535156 -22.632812 61.53125 -26.582031 58.9375 -30.34375 C 56.351562 -34.113281 53.222656 -37.269531 49.546875 -39.8125 C 45.878906 -42.351562 41.738281 -43.859375 37.125 -44.328125 C 34.582031 -44.515625 31.851562 -44.1875 28.9375 -43.34375 C 26.019531 -42.5 24.046875 -40.710938 23.015625 -37.984375 L 16.09375 -17.359375 C 12.332031 -6.628906 12.378906 -1.265625 16.234375 -1.265625 L 16.234375 0 L 4.234375 0 L 4.234375 -1.265625 C 5.265625 -1.265625 6.742188 -2.441406 8.671875 -4.796875 C 10.609375 -7.148438 12.660156 -11.484375 14.828125 -17.796875 L 39.953125 -91.34375 L 37.28125 -99.109375 L 48 -99.109375 L 74.96875 -20.46875 C 76.851562 -15.195312 78.617188 -10.675781 80.265625 -6.90625 C 81.910156 -3.144531 83.25 -1.265625 84.28125 -1.265625 L 84.28125 0 L 67.765625 0 L 67.765625 -1.265625 C 68.234375 -1.265625 68.394531 -2.582031 68.25 -5.21875 C 68.113281 -7.851562 67.390625 -11.148438 66.078125 -15.109375 Z M 40.65625 -89.375 L 24.5625 -42.21875 C 26.164062 -43.71875 28.144531 -44.679688 30.5 -45.109375 C 32.851562 -45.535156 35.0625 -45.65625 37.125 -45.46875 C 42.394531 -44.988281 47.101562 -43.195312 51.25 -40.09375 C 55.394531 -36.988281 58.785156 -33.269531 61.421875 -28.9375 Z M 40.65625 -89.375 "/></g></g></g><g fill="#0a2f4d" fill-opacity="1"><g transform="translate(84.539824, 105.861436)"><g><path d="M 53.09375 -42.640625 L 52.375 -42.640625 C 52.46875 -44.992188 51.738281 -47.582031 50.1875 -50.40625 C 48.632812 -53.226562 46.5625 -55.882812 43.96875 -58.375 C 41.382812 -60.875 38.539062 -62.875 35.4375 -64.375 C 32.332031 -65.882812 29.222656 -66.566406 26.109375 -66.421875 C 23.003906 -66.285156 20.179688 -64.898438 17.640625 -62.265625 C 15.671875 -60.285156 14.753906 -57.953125 14.890625 -55.265625 C 15.035156 -52.585938 16.144531 -50.164062 18.21875 -48 C 19.8125 -46.40625 22.1875 -44.804688 25.34375 -43.203125 C 28.5 -41.597656 32.664062 -40.140625 37.84375 -38.828125 C 41.695312 -37.796875 44.941406 -36.570312 47.578125 -35.15625 C 50.210938 -33.738281 52.378906 -32.234375 54.078125 -30.640625 C 56.804688 -27.910156 58.40625 -24.847656 58.875 -21.453125 C 59.34375 -18.066406 58.632812 -14.679688 56.75 -11.296875 C 54.78125 -7.816406 52.289062 -5.226562 49.28125 -3.53125 C 46.257812 -1.550781 42.675781 -0.140625 38.53125 0.703125 C 34.394531 1.554688 30.539062 1.882812 26.96875 1.6875 C 23.582031 1.40625 20.03125 0.65625 16.3125 -0.5625 C 12.59375 -1.789062 8.707031 -3.582031 4.65625 -5.9375 L 3.53125 -6.640625 L 6.921875 -22.3125 L 8.046875 -22.03125 C 7.859375 -20.894531 8.234375 -19.382812 9.171875 -17.5 C 10.117188 -15.625 11.25 -13.789062 12.5625 -12 C 13.882812 -10.207031 14.96875 -8.9375 15.8125 -8.1875 C 17.695312 -6.394531 19.789062 -4.9375 22.09375 -3.8125 C 24.40625 -2.6875 26.734375 -1.882812 29.078125 -1.40625 C 31.429688 -0.9375 33.757812 -0.75 36.0625 -0.84375 C 38.375 -0.9375 40.566406 -1.265625 42.640625 -1.828125 C 43.765625 -2.117188 44.820312 -2.472656 45.8125 -2.890625 C 46.800781 -3.316406 47.765625 -3.8125 48.703125 -4.375 C 49.742188 -5.125 50.59375 -5.832031 51.25 -6.5 C 51.90625 -7.25 52.492188 -8.046875 53.015625 -8.890625 C 53.535156 -9.742188 53.890625 -10.640625 54.078125 -11.578125 C 54.171875 -12.234375 54.191406 -12.914062 54.140625 -13.625 C 54.097656 -14.332031 53.984375 -15.015625 53.796875 -15.671875 C 52.941406 -18.117188 51.316406 -20.070312 48.921875 -21.53125 C 46.523438 -22.988281 43.769531 -24.1875 40.65625 -25.125 C 37.550781 -26.070312 34.398438 -27.015625 31.203125 -27.953125 C 26.679688 -29.273438 22.726562 -31.132812 19.34375 -33.53125 C 15.957031 -35.925781 13.4375 -38.722656 11.78125 -41.921875 C 10.132812 -45.128906 9.640625 -48.519531 10.296875 -52.09375 C 10.960938 -55.675781 13.128906 -59.300781 16.796875 -62.96875 C 19.242188 -65.507812 22.441406 -67.109375 26.390625 -67.765625 C 30.347656 -68.429688 34.421875 -68.410156 38.609375 -67.703125 C 42.796875 -66.992188 46.535156 -65.835938 49.828125 -64.234375 C 53.128906 -62.640625 55.390625 -60.804688 56.609375 -58.734375 Z M 53.09375 -42.640625 "/></g></g></g><g fill="#0a2f4d" fill-opacity="1"><g transform="translate(141.434011, 105.861436)"><g><path d="M 3.53125 -67.0625 L 3.53125 -68.046875 C 4.09375 -68.046875 5.101562 -68.210938 6.5625 -68.546875 C 8.019531 -68.878906 9.570312 -69.632812 11.21875 -70.8125 C 12.863281 -71.988281 14.25 -73.894531 15.375 -76.53125 C 16.507812 -79.164062 17.078125 -82.785156 17.078125 -87.390625 L 26.96875 -87.390625 C 26.96875 -81.742188 25.8125 -77.390625 23.5 -74.328125 C 21.195312 -71.273438 17.832031 -69.179688 13.40625 -68.046875 L 34.59375 -68.046875 L 34.59375 -67.0625 L 22.3125 -67.0625 L 22.3125 -26.265625 C 22.3125 -24.566406 22.40625 -22.539062 22.59375 -20.1875 C 22.78125 -17.832031 23.175781 -15.453125 23.78125 -13.046875 C 24.394531 -10.648438 25.289062 -8.535156 26.46875 -6.703125 C 27.644531 -4.867188 29.222656 -3.625 31.203125 -2.96875 C 33.929688 -2.113281 36.472656 -2.367188 38.828125 -3.734375 C 41.179688 -5.097656 43.273438 -6.957031 45.109375 -9.3125 C 46.941406 -11.664062 48.332031 -13.878906 49.28125 -15.953125 C 49.84375 -17.273438 50.40625 -18.664062 50.96875 -20.125 C 51.53125 -21.582031 52 -23.109375 52.375 -24.703125 L 53.65625 -24.703125 C 53.175781 -23.015625 52.675781 -21.390625 52.15625 -19.828125 C 51.644531 -18.273438 51.0625 -16.84375 50.40625 -15.53125 C 49.269531 -12.988281 47.785156 -10.46875 45.953125 -7.96875 C 44.117188 -5.476562 41.953125 -3.429688 39.453125 -1.828125 C 36.960938 -0.234375 34.164062 0.5625 31.0625 0.5625 C 25.976562 0.5625 22.09375 -0.773438 19.40625 -3.453125 C 16.726562 -6.140625 14.894531 -9.550781 13.90625 -13.6875 C 12.914062 -17.832031 12.421875 -22.023438 12.421875 -26.265625 L 12.421875 -58.453125 C 12.421875 -60.804688 11.617188 -62.828125 10.015625 -64.515625 C 8.421875 -66.210938 6.257812 -67.0625 3.53125 -67.0625 Z M 3.53125 -67.0625 "/></g></g></g><g fill="#0a2f4d" fill-opacity="1"><g transform="translate(192.822245, 105.861436)"><g><path d="M 54.359375 -54.5 C 55.109375 -50.925781 56.050781 -49.28125 57.1875 -49.5625 L 57.609375 -48.421875 L 49.984375 -45.46875 L 49.5625 -45.328125 L 42.21875 -42.5 L 42.21875 -43.765625 C 43.25 -44.421875 43.953125 -45.476562 44.328125 -46.9375 C 44.703125 -48.40625 44.890625 -49.796875 44.890625 -51.109375 C 44.515625 -54.304688 43.738281 -57.335938 42.5625 -60.203125 C 41.382812 -63.078125 39.242188 -64.707031 36.140625 -65.09375 C 30.960938 -65.84375 26.984375 -65.320312 24.203125 -63.53125 C 21.429688 -61.75 19.523438 -59.253906 18.484375 -56.046875 C 17.453125 -52.847656 16.84375 -49.507812 16.65625 -46.03125 L 16.65625 -12.140625 C 16.65625 -7.523438 17.101562 -4.554688 18 -3.234375 C 18.894531 -1.921875 19.53125 -1.265625 19.90625 -1.265625 L 19.90625 0 L 3.53125 0 L 3.53125 -1.265625 C 4 -1.265625 4.679688 -1.921875 5.578125 -3.234375 C 6.472656 -4.554688 6.921875 -7.523438 6.921875 -12.140625 L 6.921875 -55.90625 C 6.921875 -60.613281 6.472656 -63.601562 5.578125 -64.875 C 4.679688 -66.144531 4 -66.78125 3.53125 -66.78125 L 3.53125 -68.046875 L 16.65625 -68.046875 L 16.65625 -54.640625 C 17.695312 -58.679688 19.675781 -62.019531 22.59375 -64.65625 C 25.507812 -67.289062 30.117188 -68.609375 36.421875 -68.609375 C 41.785156 -68.609375 45.90625 -67.289062 48.78125 -64.65625 C 51.65625 -62.019531 53.515625 -58.632812 54.359375 -54.5 Z M 54.359375 -54.5 "/></g></g></g><g fill="#0a2f4d" fill-opacity="1"><g transform="translate(248.163468, 105.861436)"><g><path d="M 4.796875 -25.84375 C 3.203125 -31.957031 3.226562 -37.929688 4.875 -43.765625 C 6.519531 -49.597656 9.457031 -54.703125 13.6875 -59.078125 C 17.925781 -63.460938 23.101562 -66.453125 29.21875 -68.046875 C 35.4375 -69.742188 41.460938 -69.769531 47.296875 -68.125 C 53.128906 -66.476562 58.234375 -63.535156 62.609375 -59.296875 C 66.992188 -55.054688 69.984375 -49.832031 71.578125 -43.625 C 73.273438 -37.507812 73.273438 -31.53125 71.578125 -25.6875 C 69.890625 -19.851562 66.925781 -14.769531 62.6875 -10.4375 C 58.445312 -6.113281 53.269531 -3.101562 47.15625 -1.40625 C 41.039062 0.1875 35.039062 0.1875 29.15625 -1.40625 C 23.269531 -3.007812 18.160156 -5.953125 13.828125 -10.234375 C 9.503906 -14.515625 6.492188 -19.71875 4.796875 -25.84375 Z M 61.984375 -41.078125 C 61.035156 -44.472656 59.570312 -47.929688 57.59375 -51.453125 C 55.625 -54.984375 53.203125 -58.113281 50.328125 -60.84375 C 47.460938 -63.582031 44.265625 -65.5625 40.734375 -66.78125 C 37.203125 -68 33.460938 -68.09375 29.515625 -67.0625 C 25.554688 -66.03125 22.375 -64.078125 19.96875 -61.203125 C 17.570312 -58.335938 15.804688 -55.019531 14.671875 -51.25 C 13.546875 -47.488281 12.984375 -43.582031 12.984375 -39.53125 C 12.984375 -35.488281 13.457031 -31.769531 14.40625 -28.375 C 15.34375 -24.988281 16.800781 -21.53125 18.78125 -18 C 20.757812 -14.46875 23.179688 -11.335938 26.046875 -8.609375 C 28.921875 -5.878906 32.117188 -3.878906 35.640625 -2.609375 C 39.171875 -1.335938 42.914062 -1.269531 46.875 -2.40625 C 50.820312 -3.4375 54.019531 -5.382812 56.46875 -8.25 C 58.914062 -11.125 60.679688 -14.441406 61.765625 -18.203125 C 62.847656 -21.972656 63.390625 -25.878906 63.390625 -29.921875 C 63.390625 -33.972656 62.921875 -37.691406 61.984375 -41.078125 Z M 61.984375 -41.078125 "/></g></g></g><g fill="#0a2f4d" fill-opacity="1"><g transform="translate(318.751947, 105.861436)"><g/></g></g><g fill="#0a2f4d" fill-opacity="1"><g transform="translate(344.44572, 105.861436)"><g><path d="M 72.421875 -97.84375 L 72.421875 -99.109375 L 84.4375 -99.109375 L 84.4375 -97.84375 C 83.394531 -97.84375 81.910156 -96.710938 79.984375 -94.453125 C 78.054688 -92.191406 76.007812 -87.863281 73.84375 -81.46875 L 48.5625 -7.90625 L 51.25 0 L 40.65625 0 L 13.6875 -78.640625 C 11.90625 -84.003906 10.164062 -88.546875 8.46875 -92.265625 C 6.78125 -95.984375 5.367188 -97.84375 4.234375 -97.84375 L 4.234375 -99.109375 L 20.890625 -99.109375 L 20.890625 -97.84375 C 20.328125 -97.84375 20.140625 -96.523438 20.328125 -93.890625 C 20.515625 -91.253906 21.222656 -88.003906 22.453125 -84.140625 L 48 -9.734375 L 72.578125 -81.75 C 76.242188 -92.476562 76.191406 -97.84375 72.421875 -97.84375 Z M 72.421875 -97.84375 "/></g></g></g><g fill="#0a2f4d" fill-opacity="1"><g transform="translate(427.316727, 105.861436)"><g><path d="M 4.796875 -24.984375 C 3.203125 -31.109375 3.226562 -37.085938 4.875 -42.921875 C 6.519531 -48.753906 9.457031 -53.859375 13.6875 -58.234375 C 17.925781 -62.617188 23.101562 -65.609375 29.21875 -67.203125 C 35.71875 -68.992188 41.835938 -69.039062 47.578125 -67.34375 C 53.316406 -65.65625 58.234375 -62.859375 62.328125 -58.953125 C 66.421875 -55.046875 69.222656 -50.597656 70.734375 -45.609375 C 67.347656 -45.609375 63.703125 -45.460938 59.796875 -45.171875 C 55.890625 -44.890625 52.335938 -44.375 49.140625 -43.625 C 52.710938 -43.71875 55.835938 -42.914062 58.515625 -41.21875 C 61.203125 -39.53125 63.34375 -37.273438 64.9375 -34.453125 C 66.539062 -31.628906 67.4375 -28.566406 67.625 -25.265625 C 68 -20.179688 66.960938 -15.78125 64.515625 -12.0625 C 62.078125 -8.351562 58.757812 -5.4375 54.5625 -3.3125 C 50.375 -1.195312 45.785156 0.0195312 40.796875 0.34375 C 35.804688 0.675781 30.863281 0 25.96875 -1.6875 C 21.082031 -3.382812 16.753906 -6.140625 12.984375 -9.953125 C 9.222656 -13.765625 6.492188 -18.773438 4.796875 -24.984375 Z M 13.125 -35.15625 C 13.40625 -32.519531 13.832031 -29.976562 14.40625 -27.53125 C 16.28125 -20.75 19.003906 -15.425781 22.578125 -11.5625 C 26.160156 -7.707031 30.113281 -5.097656 34.4375 -3.734375 C 38.769531 -2.367188 43.078125 -2.0625 47.359375 -2.8125 C 51.648438 -3.570312 55.441406 -5.175781 58.734375 -7.625 C 62.023438 -10.070312 64.375 -13.203125 65.78125 -17.015625 C 67.195312 -20.828125 67.203125 -25.085938 65.796875 -29.796875 C 64.753906 -33.273438 62.914062 -36.191406 60.28125 -38.546875 C 57.644531 -40.898438 54.394531 -42.238281 50.53125 -42.5625 C 46.675781 -42.894531 42.398438 -41.695312 37.703125 -38.96875 C 34.304688 -36.988281 30.984375 -35.597656 27.734375 -34.796875 C 24.492188 -34.003906 21.507812 -33.703125 18.78125 -33.890625 C 17.832031 -33.984375 16.863281 -34.125 15.875 -34.3125 C 14.894531 -34.5 13.976562 -34.78125 13.125 -35.15625 Z M 59.859375 -46.3125 C 58.078125 -50.351562 55.675781 -54.113281 52.65625 -57.59375 C 49.644531 -61.082031 46.1875 -63.695312 42.28125 -65.4375 C 38.375 -67.175781 34.117188 -67.4375 29.515625 -66.21875 C 25.273438 -65.082031 21.90625 -62.9375 19.40625 -59.78125 C 16.914062 -56.632812 15.195312 -52.96875 14.25 -48.78125 C 13.3125 -44.59375 12.9375 -40.425781 13.125 -36.28125 C 14.726562 -35.53125 16.613281 -35.0625 18.78125 -34.875 C 21.414062 -34.78125 24.304688 -35.109375 27.453125 -35.859375 C 30.609375 -36.609375 33.832031 -37.925781 37.125 -39.8125 C 40.988281 -42.070312 44.941406 -43.671875 48.984375 -44.609375 C 53.035156 -45.554688 56.660156 -46.125 59.859375 -46.3125 Z M 59.859375 -46.3125 "/></g></g></g><g fill="#0a2f4d" fill-opacity="1"><g transform="translate(495.787577, 105.861436)"><g><path d="M 60.859375 -0.140625 L 60.859375 -38.125 C 60.191406 -33.507812 59.242188 -29.222656 58.015625 -25.265625 C 56.796875 -21.316406 55.390625 -17.835938 53.796875 -14.828125 C 50.785156 -9.367188 47.347656 -5.367188 43.484375 -2.828125 L 41.796875 -1.828125 C 39.347656 -0.421875 36.757812 0.46875 34.03125 0.84375 C 31.300781 1.21875 28.570312 1.171875 25.84375 0.703125 C 20 -0.328125 15.359375 -2.394531 11.921875 -5.5 C 8.492188 -8.613281 6.144531 -12.359375 4.875 -16.734375 C 3.601562 -21.109375 3.25 -25.71875 3.8125 -30.5625 C 4.375 -35.414062 5.738281 -40.171875 7.90625 -44.828125 C 10.070312 -49.484375 12.847656 -53.554688 16.234375 -57.046875 C 19.710938 -60.617188 23.804688 -63.507812 28.515625 -65.71875 C 33.222656 -67.9375 38.398438 -69 44.046875 -68.90625 C 46.492188 -69 49.101562 -68.785156 51.875 -68.265625 C 54.65625 -67.742188 57.648438 -66.828125 60.859375 -65.515625 L 60.859375 -89.9375 C 60.472656 -92.382812 59.972656 -93.984375 59.359375 -94.734375 C 58.753906 -95.484375 58.265625 -95.859375 57.890625 -95.859375 L 57.46875 -97.140625 L 70.734375 -102.078125 L 70.734375 -12.28125 C 70.734375 -7.664062 71.179688 -4.695312 72.078125 -3.375 C 72.972656 -2.0625 73.609375 -1.40625 73.984375 -1.40625 L 73.984375 -0.140625 Z M 60.859375 -51.8125 L 60.859375 -64.375 C 54.921875 -66.726562 49.269531 -67.90625 43.90625 -67.90625 C 39.007812 -67.8125 34.726562 -66.515625 31.0625 -64.015625 C 27.394531 -61.523438 24.335938 -58.164062 21.890625 -53.9375 C 20.191406 -50.832031 18.847656 -47.113281 17.859375 -42.78125 C 16.867188 -38.445312 16.375 -33.972656 16.375 -29.359375 C 16.375 -24.753906 16.984375 -20.40625 18.203125 -16.3125 C 19.429688 -12.21875 21.363281 -8.851562 24 -6.21875 C 26.445312 -3.863281 29.128906 -2.304688 32.046875 -1.546875 C 34.960938 -0.796875 38.023438 -1.222656 41.234375 -2.828125 C 43.109375 -3.859375 44.773438 -5.125 46.234375 -6.625 C 47.691406 -8.132812 49.035156 -9.785156 50.265625 -11.578125 C 52.710938 -15.054688 54.6875 -18.984375 56.1875 -23.359375 C 57.695312 -27.742188 58.78125 -32.097656 59.4375 -36.421875 C 59.8125 -38.398438 60.09375 -40.425781 60.28125 -42.5 C 60.5625 -45.507812 60.703125 -48.613281 60.703125 -51.8125 Z M 60.859375 -51.8125 "/></g></g></g><g fill="#0a2f4d" fill-opacity="1"><g transform="translate(567.505497, 105.861436)"><g><path d="M 3.953125 -61.84375 L 3.53125 -62.96875 L 16.796875 -68.046875 L 16.796875 -12.140625 C 16.796875 -7.523438 17.242188 -4.554688 18.140625 -3.234375 C 19.035156 -1.921875 19.671875 -1.265625 20.046875 -1.265625 L 20.046875 0 L 3.671875 0 L 3.671875 -1.265625 C 4.140625 -1.265625 4.820312 -1.921875 5.71875 -3.234375 C 6.613281 -4.554688 7.0625 -7.523438 7.0625 -12.140625 L 7.0625 -55.765625 C 6.6875 -58.304688 6.164062 -59.953125 5.5 -60.703125 C 4.84375 -61.460938 4.328125 -61.84375 3.953125 -61.84375 Z M 10.875 -79.484375 C 9.082031 -79.484375 7.523438 -80.140625 6.203125 -81.453125 C 4.890625 -82.773438 4.234375 -84.332031 4.234375 -86.125 C 4.234375 -88.007812 4.890625 -89.585938 6.203125 -90.859375 C 7.523438 -92.128906 9.082031 -92.765625 10.875 -92.765625 C 12.75 -92.765625 14.320312 -92.128906 15.59375 -90.859375 C 16.863281 -89.585938 17.5 -88.007812 17.5 -86.125 C 17.5 -84.332031 16.863281 -82.773438 15.59375 -81.453125 C 14.320312 -80.140625 12.75 -79.484375 10.875 -79.484375 Z M 10.875 -79.484375 "/></g></g></g><g fill="#0a2f4d" fill-opacity="1"><g transform="translate(585.293255, 105.861436)"><g><path d="M 63.8125 -48 C 61.9375 -52.425781 59.234375 -56.304688 55.703125 -59.640625 C 52.171875 -62.984375 48.164062 -65.3125 43.6875 -66.625 C 39.21875 -67.945312 34.492188 -67.8125 29.515625 -66.21875 C 25.554688 -65.175781 22.351562 -63.242188 19.90625 -60.421875 C 17.457031 -57.597656 15.691406 -54.28125 14.609375 -50.46875 C 13.523438 -46.65625 13.003906 -42.75 13.046875 -38.75 C 13.097656 -34.75 13.550781 -31.007812 14.40625 -27.53125 L 14.828125 -26.265625 C 16.804688 -19.484375 19.695312 -14.234375 23.5 -10.515625 C 27.3125 -6.796875 31.476562 -4.367188 36 -3.234375 C 40.519531 -2.109375 44.921875 -2.0625 49.203125 -3.09375 C 53.484375 -4.132812 57.175781 -6.066406 60.28125 -8.890625 C 63.394531 -11.710938 65.421875 -15.148438 66.359375 -19.203125 L 67.34375 -19.203125 C 66.5 -14.960938 64.617188 -11.359375 61.703125 -8.390625 C 58.785156 -5.429688 55.226562 -3.195312 51.03125 -1.6875 C 46.84375 -0.1875 42.394531 0.515625 37.6875 0.421875 C 32.988281 0.328125 28.425781 -0.609375 24 -2.390625 C 19.570312 -4.179688 15.664062 -6.957031 12.28125 -10.71875 C 8.894531 -14.488281 6.398438 -19.242188 4.796875 -24.984375 C 3.203125 -31.109375 3.226562 -37.085938 4.875 -42.921875 C 6.519531 -48.753906 9.484375 -53.859375 13.765625 -58.234375 C 18.046875 -62.617188 23.242188 -65.609375 29.359375 -67.203125 C 33.691406 -68.335938 37.90625 -68.757812 42 -68.46875 C 46.09375 -68.1875 49.832031 -67.503906 53.21875 -66.421875 C 56.613281 -65.347656 59.488281 -64.242188 61.84375 -63.109375 C 64.195312 -61.984375 65.75 -61.179688 66.5 -60.703125 L 67.0625 -60.703125 L 65.09375 -47.71875 Z M 63.8125 -48 "/></g></g></g></g></g><g transform="matrix(1, 0, 0, 1, 132, 698)"><g clip-path="url(#132a88578c)"><g fill="#03989e" fill-opacity="1"><g transform="translate(0.819192, 34.176672)"><g><path d="M 16.734375 -26.6875 L 25.796875 -0.5 C 25.035156 -0.164062 24.132812 0.0820312 23.09375 0.25 C 22.0625 0.414062 21.144531 0.484375 20.34375 0.453125 L 18.125 -6.28125 L 7.875 -6.28125 L 5.6875 0.453125 C 4.9375 0.484375 4.070312 0.414062 3.09375 0.25 C 2.125 0.0820312 1.257812 -0.164062 0.5 -0.5 L 9.609375 -26.6875 C 10.566406 -26.851562 11.742188 -26.9375 13.140625 -26.9375 C 14.546875 -26.9375 15.742188 -26.851562 16.734375 -26.6875 Z M 9.203125 -10.59375 L 16.6875 -10.59375 L 12.921875 -22.078125 Z M 9.203125 -10.59375 "/></g></g></g><g fill="#03989e" fill-opacity="1"><g transform="translate(27.102904, 34.176672)"><g><path d="M 10.75 0.6875 C 8.832031 0.6875 7.070312 0.488281 5.46875 0.09375 C 3.863281 -0.300781 2.585938 -0.828125 1.640625 -1.484375 C 1.703125 -2.210938 1.878906 -3.015625 2.171875 -3.890625 C 2.472656 -4.765625 2.820312 -5.460938 3.21875 -5.984375 C 4.175781 -5.328125 5.421875 -4.828125 6.953125 -4.484375 C 8.492188 -4.140625 9.921875 -3.96875 11.234375 -3.96875 C 13.085938 -3.96875 14.507812 -4.195312 15.5 -4.65625 C 15.695312 -4.882812 15.859375 -5.179688 15.984375 -5.546875 C 16.117188 -5.910156 16.1875 -6.351562 16.1875 -6.875 C 16.1875 -7.738281 15.90625 -8.441406 15.34375 -8.984375 C 14.789062 -9.523438 13.738281 -10.0625 12.1875 -10.59375 L 9.3125 -11.640625 C 7 -12.460938 5.226562 -13.457031 4 -14.625 C 2.78125 -15.800781 2.171875 -17.347656 2.171875 -19.265625 C 2.171875 -21.804688 3.085938 -23.8125 4.921875 -25.28125 C 6.753906 -26.75 9.273438 -27.484375 12.484375 -27.484375 C 13.992188 -27.484375 15.453125 -27.328125 16.859375 -27.015625 C 18.265625 -26.703125 19.507812 -26.210938 20.59375 -25.546875 C 20.46875 -24.816406 20.253906 -24.046875 19.953125 -23.234375 C 19.660156 -22.429688 19.28125 -21.75 18.8125 -21.1875 C 17.851562 -21.75 16.785156 -22.15625 15.609375 -22.40625 C 14.441406 -22.65625 13.25 -22.78125 12.03125 -22.78125 C 10.539062 -22.78125 9.285156 -22.613281 8.265625 -22.28125 C 8.066406 -22.082031 7.894531 -21.800781 7.75 -21.4375 C 7.601562 -21.070312 7.53125 -20.660156 7.53125 -20.203125 C 7.53125 -19.378906 7.773438 -18.691406 8.265625 -18.140625 C 8.765625 -17.597656 9.753906 -17.0625 11.234375 -16.53125 L 14.0625 -15.5 C 16.507812 -14.675781 18.367188 -13.671875 19.640625 -12.484375 C 20.910156 -11.296875 21.546875 -9.742188 21.546875 -7.828125 C 21.546875 -5.847656 21.082031 -4.226562 20.15625 -2.96875 C 19.226562 -1.71875 17.953125 -0.796875 16.328125 -0.203125 C 14.710938 0.390625 12.851562 0.6875 10.75 0.6875 Z M 10.75 0.6875 "/></g></g></g><g fill="#03989e" fill-opacity="1"><g transform="translate(50.367217, 34.176672)"><g><path d="M 9.453125 0.15625 C 9.453125 -2.257812 9.4375 -4.785156 9.40625 -7.421875 C 9.375 -10.066406 9.34375 -12.660156 9.3125 -15.203125 C 9.28125 -17.742188 9.226562 -20.070312 9.15625 -22.1875 L 0.9375 -22.1875 C 0.8125 -22.84375 0.75 -23.609375 0.75 -24.484375 C 0.75 -25.359375 0.8125 -26.109375 0.9375 -26.734375 L 22.828125 -26.734375 C 22.992188 -26.109375 23.078125 -25.359375 23.078125 -24.484375 C 23.078125 -23.609375 22.992188 -22.84375 22.828125 -22.1875 L 14.609375 -22.1875 L 14.609375 -0.15625 C 14.210938 0.0078125 13.535156 0.132812 12.578125 0.21875 C 11.617188 0.300781 10.578125 0.28125 9.453125 0.15625 Z M 9.453125 0.15625 "/></g></g></g><g fill="#03989e" fill-opacity="1"><g transform="translate(74.126511, 34.176672)"><g><path d="M 2.921875 0.15625 C 2.890625 -3.90625 2.847656 -8.125 2.796875 -12.5 C 2.742188 -16.875 2.65625 -21.457031 2.53125 -26.25 C 3.75 -26.539062 5.179688 -26.773438 6.828125 -26.953125 C 8.484375 -27.140625 10.21875 -27.234375 12.03125 -27.234375 C 15.300781 -27.234375 17.859375 -26.503906 19.703125 -25.046875 C 21.554688 -23.597656 22.484375 -21.554688 22.484375 -18.921875 C 22.484375 -14.984375 20.382812 -12.488281 16.1875 -11.4375 L 24.109375 -0.640625 C 23.285156 -0.347656 22.296875 -0.128906 21.140625 0.015625 C 19.984375 0.171875 19.046875 0.234375 18.328125 0.203125 L 10.9375 -10.59375 L 8.078125 -10.59375 L 8.078125 -0.15625 C 7.679688 0.0078125 7.003906 0.132812 6.046875 0.21875 C 5.085938 0.300781 4.046875 0.28125 2.921875 0.15625 Z M 8.078125 -14.859375 L 12.03125 -14.859375 C 13.6875 -14.859375 15.023438 -15.085938 16.046875 -15.546875 C 16.671875 -16.304688 16.984375 -17.394531 16.984375 -18.8125 C 16.984375 -20.101562 16.492188 -21.078125 15.515625 -21.734375 C 14.546875 -22.398438 13.1875 -22.734375 11.4375 -22.734375 C 10.414062 -22.734375 9.597656 -22.707031 8.984375 -22.65625 C 8.378906 -22.601562 8.078125 -22.578125 8.078125 -22.578125 Z M 8.078125 -14.859375 "/></g></g></g><g fill="#03989e" fill-opacity="1"><g transform="translate(98.430282, 34.176672)"><g><path d="M 15.109375 0.6875 C 12.035156 0.6875 9.5 0.0859375 7.5 -1.109375 C 5.5 -2.316406 4.003906 -3.984375 3.015625 -6.109375 C 2.023438 -8.242188 1.53125 -10.664062 1.53125 -13.375 C 1.53125 -17.820312 2.726562 -21.273438 5.125 -23.734375 C 7.519531 -26.203125 10.847656 -27.4375 15.109375 -27.4375 C 18.171875 -27.4375 20.703125 -26.832031 22.703125 -25.625 C 24.703125 -24.414062 26.195312 -22.753906 27.1875 -20.640625 C 28.175781 -18.535156 28.671875 -16.113281 28.671875 -13.375 C 28.671875 -8.914062 27.472656 -5.457031 25.078125 -3 C 22.679688 -0.539062 19.359375 0.6875 15.109375 0.6875 Z M 15.75 -3.8125 C 17.664062 -3.8125 19.378906 -4.191406 20.890625 -4.953125 C 21.484375 -5.941406 21.992188 -7.113281 22.421875 -8.46875 C 22.859375 -9.820312 23.078125 -11.457031 23.078125 -13.375 C 23.078125 -16.375 22.304688 -18.710938 20.765625 -20.390625 C 19.234375 -22.078125 17.128906 -22.921875 14.453125 -22.921875 C 12.503906 -22.921875 10.773438 -22.539062 9.265625 -21.78125 C 8.671875 -20.789062 8.164062 -19.617188 7.75 -18.265625 C 7.332031 -16.910156 7.125 -15.28125 7.125 -13.375 C 7.125 -10.363281 7.890625 -8.015625 9.421875 -6.328125 C 10.960938 -4.648438 13.070312 -3.8125 15.75 -3.8125 Z M 15.75 -3.8125 "/></g></g></g><g fill="#03989e" fill-opacity="1"><g transform="translate(128.624379, 34.176672)"><g><path d="M 2.921875 0 C 2.890625 -3.988281 2.847656 -8.160156 2.796875 -12.515625 C 2.742188 -16.878906 2.65625 -21.421875 2.53125 -26.140625 C 4.3125 -26.804688 6.160156 -27.085938 8.078125 -26.984375 L 8.078125 -4.5 L 20 -4.5 C 20.132812 -3.875 20.203125 -3.125 20.203125 -2.25 C 20.203125 -1.375 20.132812 -0.625 20 0 Z M 2.921875 0 "/></g></g></g><g fill="#03989e" fill-opacity="1"><g transform="translate(149.56226, 34.176672)"><g><path d="M 15.109375 0.6875 C 12.035156 0.6875 9.5 0.0859375 7.5 -1.109375 C 5.5 -2.316406 4.003906 -3.984375 3.015625 -6.109375 C 2.023438 -8.242188 1.53125 -10.664062 1.53125 -13.375 C 1.53125 -17.820312 2.726562 -21.273438 5.125 -23.734375 C 7.519531 -26.203125 10.847656 -27.4375 15.109375 -27.4375 C 18.171875 -27.4375 20.703125 -26.832031 22.703125 -25.625 C 24.703125 -24.414062 26.195312 -22.753906 27.1875 -20.640625 C 28.175781 -18.535156 28.671875 -16.113281 28.671875 -13.375 C 28.671875 -8.914062 27.472656 -5.457031 25.078125 -3 C 22.679688 -0.539062 19.359375 0.6875 15.109375 0.6875 Z M 15.75 -3.8125 C 17.664062 -3.8125 19.378906 -4.191406 20.890625 -4.953125 C 21.484375 -5.941406 21.992188 -7.113281 22.421875 -8.46875 C 22.859375 -9.820312 23.078125 -11.457031 23.078125 -13.375 C 23.078125 -16.375 22.304688 -18.710938 20.765625 -20.390625 C 19.234375 -22.078125 17.128906 -22.921875 14.453125 -22.921875 C 12.503906 -22.921875 10.773438 -22.539062 9.265625 -21.78125 C 8.671875 -20.789062 8.164062 -19.617188 7.75 -18.265625 C 7.332031 -16.910156 7.125 -15.28125 7.125 -13.375 C 7.125 -10.363281 7.890625 -8.015625 9.421875 -6.328125 C 10.960938 -4.648438 13.070312 -3.8125 15.75 -3.8125 Z M 15.75 -3.8125 "/></g></g></g><g fill="#03989e" fill-opacity="1"><g transform="translate(179.756358, 34.176672)"><g><path d="M 14.953125 0.6875 C 11.910156 0.6875 9.398438 0.0859375 7.421875 -1.109375 C 5.441406 -2.316406 3.960938 -3.984375 2.984375 -6.109375 C 2.015625 -8.242188 1.53125 -10.664062 1.53125 -13.375 C 1.53125 -17.820312 2.757812 -21.273438 5.21875 -23.734375 C 7.675781 -26.203125 11.234375 -27.4375 15.890625 -27.4375 C 17.742188 -27.4375 19.476562 -27.238281 21.09375 -26.84375 C 22.707031 -26.445312 24.109375 -25.882812 25.296875 -25.15625 C 25.097656 -24.363281 24.828125 -23.585938 24.484375 -22.828125 C 24.140625 -22.066406 23.734375 -21.359375 23.265625 -20.703125 C 22.347656 -21.328125 21.203125 -21.8125 19.828125 -22.15625 C 18.460938 -22.5 17.003906 -22.671875 15.453125 -22.671875 C 14.128906 -22.671875 12.972656 -22.582031 11.984375 -22.40625 C 10.992188 -22.226562 10.066406 -21.957031 9.203125 -21.59375 C 8.648438 -20.664062 8.164062 -19.554688 7.75 -18.265625 C 7.332031 -16.984375 7.125 -15.351562 7.125 -13.375 C 7.125 -10.5 7.84375 -8.21875 9.28125 -6.53125 C 10.71875 -4.851562 12.890625 -4.015625 15.796875 -4.015625 C 16.847656 -4.015625 17.785156 -4.085938 18.609375 -4.234375 C 19.441406 -4.378906 20.21875 -4.585938 20.9375 -4.859375 L 20.9375 -10.890625 L 14.65625 -10.890625 C 14.519531 -11.453125 14.453125 -12.203125 14.453125 -13.140625 C 14.453125 -14.085938 14.519531 -14.859375 14.65625 -15.453125 L 25.75 -15.453125 L 25.75 -2.234375 C 24.332031 -1.304688 22.738281 -0.585938 20.96875 -0.078125 C 19.207031 0.429688 17.203125 0.6875 14.953125 0.6875 Z M 14.953125 0.6875 "/></g></g></g><g fill="#03989e" fill-opacity="1"><g transform="translate(207.970514, 34.176672)"><g><path d="M 2.921875 0.15625 C 2.890625 -3.90625 2.847656 -8.125 2.796875 -12.5 C 2.742188 -16.875 2.65625 -21.421875 2.53125 -26.140625 C 4.3125 -26.804688 6.160156 -27.085938 8.078125 -26.984375 L 8.078125 -0.15625 C 7.679688 0.0078125 7.003906 0.132812 6.046875 0.21875 C 5.085938 0.300781 4.046875 0.28125 2.921875 0.15625 Z M 2.921875 0.15625 "/></g></g></g><g fill="#03989e" fill-opacity="1"><g transform="translate(218.761189, 34.176672)"><g><path d="M 14.703125 0.6875 C 11.765625 0.6875 9.320312 0.0859375 7.375 -1.109375 C 5.425781 -2.316406 3.960938 -3.984375 2.984375 -6.109375 C 2.015625 -8.242188 1.53125 -10.664062 1.53125 -13.375 C 1.53125 -17.820312 2.726562 -21.273438 5.125 -23.734375 C 7.519531 -26.203125 10.847656 -27.4375 15.109375 -27.4375 C 18.367188 -27.4375 21.007812 -26.789062 23.03125 -25.5 C 22.894531 -24.738281 22.660156 -23.960938 22.328125 -23.171875 C 22.003906 -22.378906 21.609375 -21.6875 21.140625 -21.09375 C 20.210938 -21.65625 19.210938 -22.054688 18.140625 -22.296875 C 17.066406 -22.546875 15.957031 -22.671875 14.8125 -22.671875 C 12.625 -22.671875 10.753906 -22.3125 9.203125 -21.59375 C 8.648438 -20.664062 8.164062 -19.554688 7.75 -18.265625 C 7.332031 -16.984375 7.125 -15.351562 7.125 -13.375 C 7.125 -10.5625 7.816406 -8.296875 9.203125 -6.578125 C 10.597656 -4.867188 12.695312 -4.015625 15.5 -4.015625 C 17.8125 -4.015625 19.804688 -4.570312 21.484375 -5.6875 C 21.847656 -5.132812 22.195312 -4.441406 22.53125 -3.609375 C 22.863281 -2.785156 23.09375 -2.09375 23.21875 -1.53125 C 22.164062 -0.8125 20.894531 -0.265625 19.40625 0.109375 C 17.925781 0.492188 16.359375 0.6875 14.703125 0.6875 Z M 14.703125 0.6875 "/></g></g></g><g fill="#03989e" fill-opacity="1"><g transform="translate(242.866975, 34.176672)"><g><path d="M 16.734375 -26.6875 L 25.796875 -0.5 C 25.035156 -0.164062 24.132812 0.0820312 23.09375 0.25 C 22.0625 0.414062 21.144531 0.484375 20.34375 0.453125 L 18.125 -6.28125 L 7.875 -6.28125 L 5.6875 0.453125 C 4.9375 0.484375 4.070312 0.414062 3.09375 0.25 C 2.125 0.0820312 1.257812 -0.164062 0.5 -0.5 L 9.609375 -26.6875 C 10.566406 -26.851562 11.742188 -26.9375 13.140625 -26.9375 C 14.546875 -26.9375 15.742188 -26.851562 16.734375 -26.6875 Z M 9.203125 -10.59375 L 16.6875 -10.59375 L 12.921875 -22.078125 Z M 9.203125 -10.59375 "/></g></g></g><g fill="#03989e" fill-opacity="1"><g transform="translate(269.150687, 34.176672)"><g><path d="M 2.921875 0 C 2.890625 -3.988281 2.847656 -8.160156 2.796875 -12.515625 C 2.742188 -16.878906 2.65625 -21.421875 2.53125 -26.140625 C 4.3125 -26.804688 6.160156 -27.085938 8.078125 -26.984375 L 8.078125 -4.5 L 20 -4.5 C 20.132812 -3.875 20.203125 -3.125 20.203125 -2.25 C 20.203125 -1.375 20.132812 -0.625 20 0 Z M 2.921875 0 "/></g></g></g><g fill="#03989e" fill-opacity="1"><g transform="translate(290.088568, 34.176672)"><g/></g></g><g fill="#03989e" fill-opacity="1"><g transform="translate(299.245793, 34.176672)"><g><path d="M 14.703125 0.6875 C 11.765625 0.6875 9.320312 0.0859375 7.375 -1.109375 C 5.425781 -2.316406 3.960938 -3.984375 2.984375 -6.109375 C 2.015625 -8.242188 1.53125 -10.664062 1.53125 -13.375 C 1.53125 -17.820312 2.726562 -21.273438 5.125 -23.734375 C 7.519531 -26.203125 10.847656 -27.4375 15.109375 -27.4375 C 18.367188 -27.4375 21.007812 -26.789062 23.03125 -25.5 C 22.894531 -24.738281 22.660156 -23.960938 22.328125 -23.171875 C 22.003906 -22.378906 21.609375 -21.6875 21.140625 -21.09375 C 20.210938 -21.65625 19.210938 -22.054688 18.140625 -22.296875 C 17.066406 -22.546875 15.957031 -22.671875 14.8125 -22.671875 C 12.625 -22.671875 10.753906 -22.3125 9.203125 -21.59375 C 8.648438 -20.664062 8.164062 -19.554688 7.75 -18.265625 C 7.332031 -16.984375 7.125 -15.351562 7.125 -13.375 C 7.125 -10.5625 7.816406 -8.296875 9.203125 -6.578125 C 10.597656 -4.867188 12.695312 -4.015625 15.5 -4.015625 C 17.8125 -4.015625 19.804688 -4.570312 21.484375 -5.6875 C 21.847656 -5.132812 22.195312 -4.441406 22.53125 -3.609375 C 22.863281 -2.785156 23.09375 -2.09375 23.21875 -1.53125 C 22.164062 -0.8125 20.894531 -0.265625 19.40625 0.109375 C 17.925781 0.492188 16.359375 0.6875 14.703125 0.6875 Z M 14.703125 0.6875 "/></g></g></g><g fill="#03989e" fill-opacity="1"><g transform="translate(323.351561, 34.176672)"><g><path d="M 15.109375 0.6875 C 12.035156 0.6875 9.5 0.0859375 7.5 -1.109375 C 5.5 -2.316406 4.003906 -3.984375 3.015625 -6.109375 C 2.023438 -8.242188 1.53125 -10.664062 1.53125 -13.375 C 1.53125 -17.820312 2.726562 -21.273438 5.125 -23.734375 C 7.519531 -26.203125 10.847656 -27.4375 15.109375 -27.4375 C 18.171875 -27.4375 20.703125 -26.832031 22.703125 -25.625 C 24.703125 -24.414062 26.195312 -22.753906 27.1875 -20.640625 C 28.175781 -18.535156 28.671875 -16.113281 28.671875 -13.375 C 28.671875 -8.914062 27.472656 -5.457031 25.078125 -3 C 22.679688 -0.539062 19.359375 0.6875 15.109375 0.6875 Z M 15.75 -3.8125 C 17.664062 -3.8125 19.378906 -4.191406 20.890625 -4.953125 C 21.484375 -5.941406 21.992188 -7.113281 22.421875 -8.46875 C 22.859375 -9.820312 23.078125 -11.457031 23.078125 -13.375 C 23.078125 -16.375 22.304688 -18.710938 20.765625 -20.390625 C 19.234375 -22.078125 17.128906 -22.921875 14.453125 -22.921875 C 12.503906 -22.921875 10.773438 -22.539062 9.265625 -21.78125 C 8.671875 -20.789062 8.164062 -19.617188 7.75 -18.265625 C 7.332031 -16.910156 7.125 -15.28125 7.125 -13.375 C 7.125 -10.363281 7.890625 -8.015625 9.421875 -6.328125 C 10.960938 -4.648438 13.070312 -3.8125 15.75 -3.8125 Z M 15.75 -3.8125 "/></g></g></g><g fill="#03989e" fill-opacity="1"><g transform="translate(353.545659, 34.176672)"><g><path d="M 20.640625 -26.09375 C 21.503906 -26.425781 22.414062 -26.664062 23.375 -26.8125 C 24.332031 -26.957031 25.171875 -27 25.890625 -26.9375 L 25.890625 0 C 25.597656 0.101562 25.132812 0.1875 24.5 0.25 C 23.875 0.3125 23.238281 0.332031 22.59375 0.3125 C 21.957031 0.300781 21.425781 0.28125 21 0.25 L 7.78125 -18.515625 L 7.78125 -0.09375 C 7.382812 0.03125 6.710938 0.132812 5.765625 0.21875 C 4.828125 0.300781 3.878906 0.28125 2.921875 0.15625 C 2.890625 -3.90625 2.847656 -8.125 2.796875 -12.5 C 2.742188 -16.875 2.65625 -21.421875 2.53125 -26.140625 C 3.382812 -26.472656 4.320312 -26.710938 5.34375 -26.859375 C 6.363281 -27.003906 7.335938 -27.046875 8.265625 -26.984375 L 20.9375 -9.015625 C 20.90625 -11.585938 20.863281 -14.398438 20.8125 -17.453125 C 20.769531 -20.503906 20.710938 -23.382812 20.640625 -26.09375 Z M 20.640625 -26.09375 "/></g></g></g><g fill="#03989e" fill-opacity="1"><g transform="translate(382.155804, 34.176672)"><g><path d="M 10.75 0.6875 C 8.832031 0.6875 7.070312 0.488281 5.46875 0.09375 C 3.863281 -0.300781 2.585938 -0.828125 1.640625 -1.484375 C 1.703125 -2.210938 1.878906 -3.015625 2.171875 -3.890625 C 2.472656 -4.765625 2.820312 -5.460938 3.21875 -5.984375 C 4.175781 -5.328125 5.421875 -4.828125 6.953125 -4.484375 C 8.492188 -4.140625 9.921875 -3.96875 11.234375 -3.96875 C 13.085938 -3.96875 14.507812 -4.195312 15.5 -4.65625 C 15.695312 -4.882812 15.859375 -5.179688 15.984375 -5.546875 C 16.117188 -5.910156 16.1875 -6.351562 16.1875 -6.875 C 16.1875 -7.738281 15.90625 -8.441406 15.34375 -8.984375 C 14.789062 -9.523438 13.738281 -10.0625 12.1875 -10.59375 L 9.3125 -11.640625 C 7 -12.460938 5.226562 -13.457031 4 -14.625 C 2.78125 -15.800781 2.171875 -17.347656 2.171875 -19.265625 C 2.171875 -21.804688 3.085938 -23.8125 4.921875 -25.28125 C 6.753906 -26.75 9.273438 -27.484375 12.484375 -27.484375 C 13.992188 -27.484375 15.453125 -27.328125 16.859375 -27.015625 C 18.265625 -26.703125 19.507812 -26.210938 20.59375 -25.546875 C 20.46875 -24.816406 20.253906 -24.046875 19.953125 -23.234375 C 19.660156 -22.429688 19.28125 -21.75 18.8125 -21.1875 C 17.851562 -21.75 16.785156 -22.15625 15.609375 -22.40625 C 14.441406 -22.65625 13.25 -22.78125 12.03125 -22.78125 C 10.539062 -22.78125 9.285156 -22.613281 8.265625 -22.28125 C 8.066406 -22.082031 7.894531 -21.800781 7.75 -21.4375 C 7.601562 -21.070312 7.53125 -20.660156 7.53125 -20.203125 C 7.53125 -19.378906 7.773438 -18.691406 8.265625 -18.140625 C 8.765625 -17.597656 9.753906 -17.0625 11.234375 -16.53125 L 14.0625 -15.5 C 16.507812 -14.675781 18.367188 -13.671875 19.640625 -12.484375 C 20.910156 -11.296875 21.546875 -9.742188 21.546875 -7.828125 C 21.546875 -5.847656 21.082031 -4.226562 20.15625 -2.96875 C 19.226562 -1.71875 17.953125 -0.796875 16.328125 -0.203125 C 14.710938 0.390625 12.851562 0.6875 10.75 0.6875 Z M 10.75 0.6875 "/></g></g></g><g fill="#03989e" fill-opacity="1"><g transform="translate(405.420136, 34.176672)"><g><path d="M 13.5625 0.6875 C 10.0625 0.6875 7.40625 -0.09375 5.59375 -1.65625 C 3.78125 -3.226562 2.859375 -5.613281 2.828125 -8.8125 C 2.828125 -10.757812 2.789062 -13.144531 2.71875 -15.96875 C 2.65625 -18.789062 2.59375 -22.179688 2.53125 -26.140625 C 3.382812 -26.472656 4.296875 -26.710938 5.265625 -26.859375 C 6.242188 -27.003906 7.179688 -27.046875 8.078125 -26.984375 L 8.078125 -9.265625 C 8.078125 -5.628906 10.085938 -3.8125 14.109375 -3.8125 C 17.710938 -3.8125 19.5625 -5.644531 19.65625 -9.3125 C 19.71875 -11.351562 19.707031 -13.84375 19.625 -16.78125 C 19.550781 -19.71875 19.460938 -22.835938 19.359375 -26.140625 C 21.140625 -26.804688 22.988281 -27.085938 24.90625 -26.984375 L 24.8125 -9.703125 C 24.78125 -6.335938 23.796875 -3.765625 21.859375 -1.984375 C 19.929688 -0.203125 17.164062 0.6875 13.5625 0.6875 Z M 13.5625 0.6875 "/></g></g></g><g fill="#03989e" fill-opacity="1"><g transform="translate(432.842299, 34.176672)"><g><path d="M 2.921875 0 C 2.890625 -3.988281 2.847656 -8.160156 2.796875 -12.515625 C 2.742188 -16.878906 2.65625 -21.421875 2.53125 -26.140625 C 4.3125 -26.804688 6.160156 -27.085938 8.078125 -26.984375 L 8.078125 -4.5 L 20 -4.5 C 20.132812 -3.875 20.203125 -3.125 20.203125 -2.25 C 20.203125 -1.375 20.132812 -0.625 20 0 Z M 2.921875 0 "/></g></g></g><g fill="#03989e" fill-opacity="1"><g transform="translate(453.780197, 34.176672)"><g><path d="M 9.453125 0.15625 C 9.453125 -2.257812 9.4375 -4.785156 9.40625 -7.421875 C 9.375 -10.066406 9.34375 -12.660156 9.3125 -15.203125 C 9.28125 -17.742188 9.226562 -20.070312 9.15625 -22.1875 L 0.9375 -22.1875 C 0.8125 -22.84375 0.75 -23.609375 0.75 -24.484375 C 0.75 -25.359375 0.8125 -26.109375 0.9375 -26.734375 L 22.828125 -26.734375 C 22.992188 -26.109375 23.078125 -25.359375 23.078125 -24.484375 C 23.078125 -23.609375 22.992188 -22.84375 22.828125 -22.1875 L 14.609375 -22.1875 L 14.609375 -0.15625 C 14.210938 0.0078125 13.535156 0.132812 12.578125 0.21875 C 11.617188 0.300781 10.578125 0.28125 9.453125 0.15625 Z M 9.453125 0.15625 "/></g></g></g><g fill="#03989e" fill-opacity="1"><g transform="translate(477.539491, 34.176672)"><g><path d="M 2.921875 0.15625 C 2.890625 -3.90625 2.847656 -8.125 2.796875 -12.5 C 2.742188 -16.875 2.65625 -21.421875 2.53125 -26.140625 C 4.3125 -26.804688 6.160156 -27.085938 8.078125 -26.984375 L 8.078125 -0.15625 C 7.679688 0.0078125 7.003906 0.132812 6.046875 0.21875 C 5.085938 0.300781 4.046875 0.28125 2.921875 0.15625 Z M 2.921875 0.15625 "/></g></g></g><g fill="#03989e" fill-opacity="1"><g transform="translate(488.330147, 34.176672)"><g><path d="M 20.640625 -26.09375 C 21.503906 -26.425781 22.414062 -26.664062 23.375 -26.8125 C 24.332031 -26.957031 25.171875 -27 25.890625 -26.9375 L 25.890625 0 C 25.597656 0.101562 25.132812 0.1875 24.5 0.25 C 23.875 0.3125 23.238281 0.332031 22.59375 0.3125 C 21.957031 0.300781 21.425781 0.28125 21 0.25 L 7.78125 -18.515625 L 7.78125 -0.09375 C 7.382812 0.03125 6.710938 0.132812 5.765625 0.21875 C 4.828125 0.300781 3.878906 0.28125 2.921875 0.15625 C 2.890625 -3.90625 2.847656 -8.125 2.796875 -12.5 C 2.742188 -16.875 2.65625 -21.421875 2.53125 -26.140625 C 3.382812 -26.472656 4.320312 -26.710938 5.34375 -26.859375 C 6.363281 -27.003906 7.335938 -27.046875 8.265625 -26.984375 L 20.9375 -9.015625 C 20.90625 -11.585938 20.863281 -14.398438 20.8125 -17.453125 C 20.769531 -20.503906 20.710938 -23.382812 20.640625 -26.09375 Z M 20.640625 -26.09375 "/></g></g></g><g fill="#03989e" fill-opacity="1"><g transform="translate(516.940293, 34.176672)"><g><path d="M 14.953125 0.6875 C 11.910156 0.6875 9.398438 0.0859375 7.421875 -1.109375 C 5.441406 -2.316406 3.960938 -3.984375 2.984375 -6.109375 C 2.015625 -8.242188 1.53125 -10.664062 1.53125 -13.375 C 1.53125 -17.820312 2.757812 -21.273438 5.21875 -23.734375 C 7.675781 -26.203125 11.234375 -27.4375 15.890625 -27.4375 C 17.742188 -27.4375 19.476562 -27.238281 21.09375 -26.84375 C 22.707031 -26.445312 24.109375 -25.882812 25.296875 -25.15625 C 25.097656 -24.363281 24.828125 -23.585938 24.484375 -22.828125 C 24.140625 -22.066406 23.734375 -21.359375 23.265625 -20.703125 C 22.347656 -21.328125 21.203125 -21.8125 19.828125 -22.15625 C 18.460938 -22.5 17.003906 -22.671875 15.453125 -22.671875 C 14.128906 -22.671875 12.972656 -22.582031 11.984375 -22.40625 C 10.992188 -22.226562 10.066406 -21.957031 9.203125 -21.59375 C 8.648438 -20.664062 8.164062 -19.554688 7.75 -18.265625 C 7.332031 -16.984375 7.125 -15.351562 7.125 -13.375 C 7.125 -10.5 7.84375 -8.21875 9.28125 -6.53125 C 10.71875 -4.851562 12.890625 -4.015625 15.796875 -4.015625 C 16.847656 -4.015625 17.785156 -4.085938 18.609375 -4.234375 C 19.441406 -4.378906 20.21875 -4.585938 20.9375 -4.859375 L 20.9375 -10.890625 L 14.65625 -10.890625 C 14.519531 -11.453125 14.453125 -12.203125 14.453125 -13.140625 C 14.453125 -14.085938 14.519531 -14.859375 14.65625 -15.453125 L 25.75 -15.453125 L 25.75 -2.234375 C 24.332031 -1.304688 22.738281 -0.585938 20.96875 -0.078125 C 19.207031 0.429688 17.203125 0.6875 14.953125 0.6875 Z M 14.953125 0.6875 "/></g></g></g></g></g></svg>